<svg id="Layer_1" data-name="Layer 1" xmlns="http://www.w3.org/2000/svg" xmlns:xlink="http://www.w3.org/1999/xlink" width="202" height="202" viewBox="0 0 202 202"><defs><style>.cls-1{fill:none;}.cls-2{fill:#fff;}.cls-3{fill:#373535;}.cls-4{fill:#bbe6fb;}.cls-5{clip-path:url(#clip-path);}.cls-6{opacity:0.35;}.cls-7{fill:#1287b1;}.cls-8{clip-path:url(#clip-path-2);}.cls-9{clip-path:url(#clip-path-3);}.cls-10{clip-path:url(#clip-path-4);}</style><clipPath id="clip-path"><rect class="cls-1" x="62.68" y="56.73" width="66.55" height="46.87"/></clipPath><clipPath id="clip-path-2"><rect class="cls-1" x="81.68" y="62.43" width="34.6" height="34.57"/></clipPath><clipPath id="clip-path-3"><rect class="cls-1" x="20.77" y="49" width="160.1" height="46.6"/></clipPath><clipPath id="clip-path-4"><rect class="cls-1" x="20.11" y="77.3" width="150.29" height="55.64"/></clipPath></defs><title>Logo_Connector</title><rect class="cls-2" x="2.19" y="2" width="198" height="198"/><path d="M201.31,201.12H1.06V.87H201.31Zm-198-2.25H199.06V3.12H3.31Z"/><g id="layer1"><g id="g3012"><g id="g3014"><g id="g3020"><path id="path3022" class="cls-3" d="M36.67,137.23a5,5,0,0,1,3.33,1c.11,1-.8,2.64-1.38,2.64a6,6,0,0,0-2.13-.4c-3.3,0-4.93,3.4-4.93,6.77,0,2.1.73,3.36,2.39,3.36a7.63,7.63,0,0,0,4.6-2.1,1.94,1.94,0,0,1,.58,1.42,2.77,2.77,0,0,1-.87,2.06,8.18,8.18,0,0,1-5.94,2.13c-3.25,0-5.49-1.84-5.49-6.15,0-5.64,3.72-10.71,9.8-10.71Z"/></g><g id="g3024"><path id="path3026" class="cls-3" d="M47.3,150.4c1.78,0,5-3.11,5.9-9a6.17,6.17,0,0,1,.15-.84,4.68,4.68,0,0,0-1.49-.25,4.57,4.57,0,0,0-3.94,2.06,10.23,10.23,0,0,0-1.81,5.76c0,1.52.43,2.31,1.16,2.31Zm-5.82-1.63a12.57,12.57,0,0,1,3.44-8.57,10.18,10.18,0,0,1,7.7-3,31.51,31.51,0,0,1,5.47.83c-.37,1.6-1.23,7.6-1.63,11.08a26.49,26.49,0,0,0-.18,4.3,13.57,13.57,0,0,1-4.06.65c-.32,0-.39-1.48-.28-2.89,0-.47.1-1.16.14-1.45A8.83,8.83,0,0,1,45,154.09c-2.1,0-3.47-1.73-3.47-5.28Z"/></g><g id="g3028"><path id="path3030" class="cls-3" d="M67.09,137.23a5.19,5.19,0,0,1,3.55,1.23c0,1-.83,2.71-2.1,2.24a5.37,5.37,0,0,0-1.81-.32c-1,0-1.81.43-1.81,1.34,0,.68.51,1.19,2.93,2.89,1.74,1.27,2.43,2.39,2.43,4,0,2.64-2.5,5.5-6.84,5.5a5.06,5.06,0,0,1-3.84-1.41c-.65-1.08-.14-3.22.58-2.86a9.49,9.49,0,0,0,3.77,1c1.19,0,2-.54,2-1.27s-.54-1.15-2.75-2.71c-1.85-1.38-2.42-2.64-2.42-4.09,0-3,2.57-5.5,6.33-5.5Z"/></g><g id="g3032"><path id="path3034" class="cls-3" d="M79.58,137.23a5.18,5.18,0,0,1,3.54,1.23c0,1-.83,2.71-2.1,2.24a5.36,5.36,0,0,0-1.8-.32c-1,0-1.81.43-1.81,1.34,0,.68.5,1.19,2.93,2.89,1.73,1.27,2.42,2.39,2.42,4,0,2.64-2.5,5.5-6.84,5.5a5,5,0,0,1-3.83-1.41c-.65-1.08-.15-3.22.58-2.86a9.44,9.44,0,0,0,3.76,1c1.19,0,1.95-.54,1.95-1.27s-.54-1.15-2.75-2.71c-1.84-1.38-2.42-2.64-2.42-4.09,0-3,2.57-5.5,6.33-5.5Z"/></g><g id="g3036"><path id="path3038" class="cls-3" d="M91,150.4c1.78,0,5-3.11,5.9-9a6.17,6.17,0,0,1,.15-.84,4.68,4.68,0,0,0-1.49-.25,4.57,4.57,0,0,0-3.94,2.06,10.23,10.23,0,0,0-1.81,5.76c0,1.52.43,2.31,1.16,2.31Zm-5.82-1.63a12.6,12.6,0,0,1,3.43-8.57,10.21,10.21,0,0,1,7.71-3,31.51,31.51,0,0,1,5.47.83c-.37,1.6-1.23,7.6-1.63,11.08a26.49,26.49,0,0,0-.18,4.3,13.57,13.57,0,0,1-4.06.65c-.32,0-.39-1.48-.29-2.89,0-.47.11-1.16.15-1.45a8.83,8.83,0,0,1-7.13,4.34c-2.1,0-3.47-1.73-3.47-5.28Z"/></g><g id="g3040"><path id="path3042" class="cls-3" d="M109.93,141.93c1.67-2.67,3.84-4.7,6.88-4.7,2.57,0,3.4,2.39,2.93,5.79-.26,1.59-.69,3.87-1,6a30.25,30.25,0,0,0-.4,4.45,15.18,15.18,0,0,1-4.3.65c-.26,0-.29-2,0-4.09.29-1.73.91-4.88,1.2-6.69.18-1.05.14-2.32-.87-2.32-1.34,0-4.52,2.14-6.12,10.9a1.89,1.89,0,0,1-.79,1.41c-.55.32-1.7.61-4.06.65.44-2.21,1.13-6.73,1.63-10.06a27.82,27.82,0,0,0,.54-5.75,38.41,38.41,0,0,1,4.2-.91c.4,0,.47,1.12.11,3.84,0,.25-.07.65-.11.86Z"/></g><g id="g3044"><path id="path3046" class="cls-3" d="M128.31,150.37c1.59,0,4.81-3,5.72-8.22,0-.29.14-.83.22-1.16a2.86,2.86,0,0,0-2.07-.72c-3.65,0-5.28,4.38-5.28,7.53,0,1.7.58,2.57,1.37,2.57Zm-2.39,3.72c-2.31,0-3.76-2.06-3.76-5.61,0-5.86,3.65-11.25,9.81-11.25a5.49,5.49,0,0,1,2.67.65c.33-1.66,1.09-6.8,1.13-8.32a33.49,33.49,0,0,1,4.16-.51c.4,0,.5.4.36,1.31-.87,5.42-2.43,15.84-2.72,18.16a37.87,37.87,0,0,0-.21,5,13.89,13.89,0,0,1-4.13.61c-.25,0-.4-1.66-.32-3.14,0-.48.11-1.16.11-1.27-1.81,3-4.31,4.41-7.06,4.41Z"/></g><g id="g3048"><path id="path3050" class="cls-3" d="M147.12,142.44c1.92-4.27,4.2-5.21,5.69-5.21a2.43,2.43,0,0,1,1.52.65,7.71,7.71,0,0,1-1.63,4.49,3.57,3.57,0,0,0-1.59-.44c-1.24,0-3.66,1.92-5.18,10.17-.11.69-.32,1-.72,1.16a14.94,14.94,0,0,1-4.2.69c.54-3,1.48-9,1.85-12.56a21,21,0,0,0,.07-3.22,19.32,19.32,0,0,1,4-.94c.33,0,.58,2,.08,5.21Z"/></g><g id="g3052"><path id="path3054" class="cls-3" d="M159.9,150.4c1.77,0,5-3.11,5.9-9a6.13,6.13,0,0,1,.14-.84,4.67,4.67,0,0,0-1.48-.25,4.58,4.58,0,0,0-4,2.06,10.31,10.31,0,0,0-1.81,5.76c0,1.52.44,2.31,1.16,2.31Zm-5.83-1.63a12.57,12.57,0,0,1,3.44-8.57,10.2,10.2,0,0,1,7.71-3,31.39,31.39,0,0,1,5.46.83c-.36,1.6-1.23,7.6-1.63,11.08a27.69,27.69,0,0,0-.18,4.3,13.51,13.51,0,0,1-4.05.65c-.33,0-.4-1.48-.29-2.89,0-.47.11-1.16.14-1.45a8.81,8.81,0,0,1-7.12,4.34c-2.1,0-3.48-1.73-3.48-5.28Z"/></g></g></g></g><g id="g4555"><g id="g2828"><g id="g2830"><g id="g2836"><path id="path2838" class="cls-4" d="M149.27,75.91c1.19,13.91-20.69,27.15-48.89,29.57s-52-6.9-53.21-20.81,20.7-27.14,48.89-29.56,52,6.89,53.21,20.8"/></g></g></g><g id="g2840"><g id="g2842"><g id="g2848"><g id="g2856"><g class="cls-5"><g id="g2858" class="cls-6"><g id="g2860"><path id="path2862" class="cls-2" d="M96.89,56.74c-10.76-.18-23.34,4.09-32.71,8.09a27.21,27.21,0,0,0-1.49,8.9c0,16.49,14.89,29.87,33.27,29.87s33.28-13.38,33.28-29.87a27.39,27.39,0,0,0-4.12-14.4,210.91,210.91,0,0,0-28.23-2.59"/></g></g></g></g></g></g></g><g id="g2864"><g id="g2866"><g id="g2872"><path id="path2874" class="cls-2" d="M96,56.74c-5.95-.37-16.22,2.74-24.77,5.84a25.42,25.42,0,0,0-2,10c0,14.45,13.11,26.17,27,26.17s26-11.74,27-26.17a22.67,22.67,0,0,0-3.54-13A227.76,227.76,0,0,0,96,56.74"/></g></g></g><g id="g2876"><g id="g2878"><g id="g2884"><path id="path2886" class="cls-3" d="M80.68,70.63c.73-1.62,1.84-2.41,2.91-3.77a8.34,8.34,0,0,1-.38-1.73,3,3,0,0,1,2.94-2.95,3,3,0,0,1,1.09.21A21.46,21.46,0,0,1,105,58.5c.59.14,1.17.3,1.74.47a25.29,25.29,0,0,0-18.44,5.32,7.22,7.22,0,0,1,.56,1.76c0,1.63-1,2-2.68,2a3.05,3.05,0,0,1-1.05-.19A29.7,29.7,0,0,0,82,74c2.7,2.41,5.14,3.29,8.32,4.48,0-.15.11-.29.11-.45a9.18,9.18,0,0,1,9.22-8.88,8.87,8.87,0,0,1,8.74,7.38c2.19-1.39,4.31-2.46,5.93-4.53a5.18,5.18,0,0,1-.79-2.4,2.67,2.67,0,0,1,2.67-2.67,3.08,3.08,0,0,1,.61.07,23,23,0,0,0,1.83-5.31C111,56,96.14,56.74,96.14,56.74S84.33,56.12,76.34,60a23.59,23.59,0,0,0,4.34,10.61"/></g><g id="g2888"><path id="path2890" class="cls-3" d="M117.32,68.42a5,5,0,0,1,1.07,1.33c.72,1.29-.72,2.47-2.2,2.47a3,3,0,0,1-.43,0,28.2,28.2,0,0,1-7.16,7.6,22.59,22.59,0,0,1,10.68,4.69,31.75,31.75,0,0,0,3.83-14.25,10.15,10.15,0,0,0-4-8.23,29.29,29.29,0,0,1-1.77,6.43"/></g><g id="g2892"><path id="path2894" class="cls-3" d="M85.13,93c1.32-3.65,4.57-6.48,7.65-9a17,17,0,0,1-1.41-2.87,21.45,21.45,0,0,1-9.64-6.1l-.06.25a19.38,19.38,0,0,0-.34,6.47,3.87,3.87,0,0,1,3.16,3.8,5.91,5.91,0,0,1-1.75,3.45,18.06,18.06,0,0,0,2.39,4"/></g><g id="g2896"><path id="path2898" class="cls-3" d="M84.9,96.07c-1.58-1.56-2.67-4.69-3.69-6.65a3.81,3.81,0,0,1-.59,0c-2.14,0-4.38-1.8-3.87-3.87a3.84,3.84,0,0,1,2.36-2.53,27.38,27.38,0,0,1,.18-8.27A17.33,17.33,0,0,1,80,73.08a22.66,22.66,0,0,1-3.88-12.47c0-.17,0-.33,0-.49-4,2-7,5.15-7,10.1,0,11,6.32,21.73,15.72,25.94a.29.29,0,0,1,0-.09"/></g><g id="g2900"><path id="path2902" class="cls-3" d="M108,80.91a8.85,8.85,0,0,1-13.84,4,26.12,26.12,0,0,0-7.37,10.37,21.52,21.52,0,0,0,1.82,1.88c2.17.56,5.17,0,7.53,0,9.47,0,17.86-4.22,22.67-11.61-3.2-2.22-7-4.32-10.81-4.68"/></g></g></g><g id="g2904"><g id="g2906"><g id="g2912"><path id="path2914" class="cls-7" d="M80.44,71.91a21.48,21.48,0,0,1,2.71-4.47,3.18,3.18,0,0,1-.18-1,2.94,2.94,0,0,1,2.94-2.94,2.86,2.86,0,0,1,1.09.21,21.43,21.43,0,0,1,17.73-3.9c.59.14,1.17.3,1.73.47a23.62,23.62,0,0,0-17.84,5,2.9,2.9,0,0,1,.23,1.14,2.93,2.93,0,0,1-2.94,2.94,3.05,3.05,0,0,1-1-.19A20.26,20.26,0,0,0,82.19,74a22,22,0,0,0,8.35,5.67c0-.15,0-.3,0-.46a8.87,8.87,0,0,1,17.62-1.49,22.79,22.79,0,0,0,5.75-5.25,2.62,2.62,0,0,1-.61-1.68A2.68,2.68,0,0,1,116,68.16a2.49,2.49,0,0,1,.61.08,23.74,23.74,0,0,0,1.83-5.32c-7.67-5.67-22.5-4.9-22.5-4.9S84.09,57.4,76.1,61.3a23.48,23.48,0,0,0,4.34,10.61"/></g><g id="g2916"><path id="path2918" class="cls-7" d="M117.73,68.86a2.59,2.59,0,0,1,.89,2A2.66,2.66,0,0,1,116,73.5a3.27,3.27,0,0,1-.44,0A21.58,21.58,0,0,1,109.06,80a21.7,21.7,0,0,1,10.4,4.67,26.88,26.88,0,0,0,3.4-13.12,10.17,10.17,0,0,0-4-8.23,21.5,21.5,0,0,1-1.12,5.59"/></g><g id="g2920"><path id="path2922" class="cls-7" d="M85.54,93.89a21.43,21.43,0,0,1,6.69-9.41,8.91,8.91,0,0,1-1.1-2,21.56,21.56,0,0,1-9.64-6.11c0,.09,0,.17-.07.25a19.66,19.66,0,0,0-.33,6.47A3.86,3.86,0,0,1,83,89.72a23.12,23.12,0,0,0,2.54,4.17"/></g><g id="g2924"><path id="path2926" class="cls-7" d="M84.89,96A21.52,21.52,0,0,1,81,90.7a3.92,3.92,0,0,1-.59,0,3.87,3.87,0,0,1-1.69-7.35,21.61,21.61,0,0,1,.36-7.32q.24-1.06.57-2.07a21.43,21.43,0,0,1-3.74-12.12c0-.17,0-.33,0-.49-4,2-7,5.15-7,10.1a27,27,0,0,0,16,24.62.29.29,0,0,1,0-.09"/></g><g id="g2928"><path id="path2930" class="cls-7" d="M107.76,82.2a8.86,8.86,0,0,1-13.84,4A22,22,0,0,0,87,95.65a25.48,25.48,0,0,0,2.06,2,27.27,27.27,0,0,0,6.81.87,26.93,26.93,0,0,0,22.62-12.29,22.66,22.66,0,0,0-10.75-4"/></g></g></g><g id="g2932"><g id="g2934"><g id="g2940"><g id="g2948"><g class="cls-8"><g id="g2950"><g id="g2952"><path id="path2954" class="cls-2" d="M108.07,79.91l8.2-2L108,77.53l6.7-5.12-7.6,2.73L112.3,68l-7.13,4.74,2.49-8.38-4.89,6.91-.12-8.73-3.22,7.77-2.69-7.86.15,9.26-4.65-8.3,2.52,8.82-7.54-5.48,5.9,7.41L83.77,70.7l7.38,5.47-9.47.29L91.36,79l-9.68,2.09,9.56.69-8.07,5.17,8.31-3-5.76,7.29L93,85.32l-2.62,9.8,5.62-8-.79,9.41L98.4,88l2.72,9,.66-9,4,7.67-2.39-8.77,7.39,5.71L106,85.32l8.1,3.16L108,82.39l8.3.66Z"/></g></g></g></g></g></g></g><g id="g2956"><g id="g2958"><g id="g2964"><g id="g2972"><g class="cls-9"><g id="g2974" class="cls-6"><g id="g2976"><path id="path2978" class="cls-3" d="M20.77,95.6C46.2,70.17,66.52,62.32,85,58.73c2.44-.47,2.9-5.8,2.9-5.8s.34,3.92,2.05,4.43,3.92-6.14,3.92-6.14-2,6,0,6.32,5.81-5.81,5.81-5.81-1.54,5.29-.51,5.63,6.14-7.68,6.14-7.68-3.07,5.3-.17,5.81,7.14-3.61,7.14-3.61-3.33,3.77-1.85,4.29c6.32,2.22,11.43-6,11.43-6a27.87,27.87,0,0,1-4.26,7.53c6.66,1.7,11.6-8.32,11.6-8.32l-4.94,10C126.77,60.78,137,49,137,49s-5.29,9.22-8.37,11.1c1.71,1.36,7.86-4.1,7.86-4.1s-4.95,6.14-3.08,6.49c2.73,2.21,12.8-11.44,12.8-11.44a69.26,69.26,0,0,1-9.72,14.34c4.85,2.42,16.89-13.15,16.89-13.15s-.34,4.95-9,12.81c6.48-.86,14.85-13.15,14.85-13.15a40.82,40.82,0,0,1-10.42,15.71c6.37-.67,16.56-16.39,16.56-16.39s-3.92,10.92-12,17.24c8.88,2,21.68-11.27,21.68-11.27s-5,9.39-11.61,13.23c7.34,2.82,17.41-8.79,17.41-8.79S170.8,77.16,154.76,76.48c-5.26-.22-21.19-16-55.3-14.68C54.4,63.51,44.84,82.63,20.77,95.6"/></g></g></g></g></g><g id="g2980"><path id="path2982" class="cls-3" d="M21.81,93.67C47.25,68.24,67.56,60.38,86,56.8c2.44-.47,2.9-5.8,2.9-5.8s.34,3.92,2,4.43,3.93-6.14,3.93-6.14-2.05,6,0,6.32,5.8-5.81,5.8-5.81-1.54,5.29-.51,5.63,6.14-7.68,6.14-7.68-3.07,5.29-.17,5.81S113.27,50,113.27,50s-3.33,3.77-1.85,4.29c6.32,2.22,11.43-6,11.43-6a27.87,27.87,0,0,1-4.26,7.53c6.66,1.7,11.6-8.33,11.6-8.33l-4.94,10c2.56,1.37,12.8-10.41,12.8-10.41s-5.29,9.22-8.36,11.09c1.7,1.37,7.85-4.09,7.85-4.09s-4.95,6.14-3.07,6.48c2.73,2.22,12.8-11.43,12.8-11.43a69.53,69.53,0,0,1-9.73,14.34c4.85,2.42,16.9-13.15,16.9-13.15s-.35,4.95-9.05,12.81C151.88,62.26,160.24,50,160.24,50a40.73,40.73,0,0,1-10.41,15.71c6.37-.67,16.55-16.39,16.55-16.39s-3.92,10.92-11.94,17.24c8.87,2,21.67-11.27,21.67-11.27s-5,9.39-11.6,13.23c7.34,2.82,17.41-8.79,17.41-8.79S171.85,75.23,155.8,74.55c-5.26-.22-21.19-16-55.3-14.68C55.44,61.58,45.88,80.7,21.81,93.67"/></g></g></g><g id="g2984"><g id="g2986"><g id="g2992"><g id="g3000"><g class="cls-10"><g id="g3002" class="cls-6"><g id="g3004"><path id="path3006" class="cls-3" d="M20.11,98.38c13.44,6.74,25.73-1,41.22,3.34,11.77,3.32,26.11,7.41,45.57,4.6S143,95.05,150.94,80c2.47-6.75,12.54,1.53,12.54,1.53s-7.34-3.07-7.17-1.62,11,6.49,11,6.49-9.81-3.08-9.22-.77S170.39,97.1,170.39,97.1,157.17,87,156.06,88.39s5.63,6.92,5.63,6.92-11.18-6.92-15.11-4.88c-2.82,1.47,11.61,10.94,11.61,10.94s-9.39-7.17-11.61-5.29,10.59,17.23,10.59,17.23-14.51-15.7-16-14.93,4,8.28,4,8.28-7.17-7.85-9.13-6.49,10.24,21.76,10.24,21.76S133.1,101,127.64,104.52C136.21,123.34,133,126,133,126s-1.09-19.2-11.77-18.69c-5.38.26,2.56,14.34,2.56,14.34s-7.31-12.86-12.17-12.61c9,17,5.77,23.87,5.77,23.87s1.48-14.49-10.68-22.55c4.61,4.09-2.89,22.55-2.89,22.55s6.59-27.2-4.87-22c-1.81.81-.13,13.56-.13,13.56s-2.3-14.59-5.76-13.82c-2,.45-12.8,20.22-12.8,20.22s8.83-21.37,6.15-20.48c-2,.66-5.64,9.48-5.64,9.48s1.8-8.71,0-9.22S69,119.89,69,119.89s7.42-8.71,6.14-10.5c-1.94-2.72-4.21-2.84-6.91-1.79-3.93,1.53-9.22,8.7-9.22,8.7s5.28-7.26,4.35-10c-1.48-4.38-16.64,8.45-16.64,8.45s9-8.45,6.92-10.25S40.48,103.29,37,103.28c-10.24,0-13.79-2.44-16.89-4.9"/></g></g></g></g></g><g id="g3008"><path id="path3010" class="cls-3" d="M19.59,96.84c13.45,6.75,25.73-1,41.22,3.35,11.78,3.31,26.12,7.41,45.58,4.59s36.1-11.27,44-26.37C152.9,71.67,163,80,163,80s-7.34-3.08-7.17-1.63,11,6.49,11,6.49S157,81.74,157.59,84s12.29,11.52,12.29,11.52-13.23-10.07-14.34-8.7,5.64,6.91,5.64,6.91S150,86.86,146.07,88.9c-2.82,1.46,11.61,10.93,11.61,10.93s-9.39-7.17-11.61-5.29,10.58,17.24,10.58,17.24-14.51-15.7-16-14.94,4,8.28,4,8.28-7.17-7.85-9.14-6.48,10.24,21.76,10.24,21.76S132.59,99.49,127.12,103c8.58,18.82,5.38,21.5,5.38,21.5s-1.09-19.19-11.78-18.69c-5.37.26,2.56,14.34,2.56,14.34s-7.3-12.86-12.17-12.6c9,17,5.77,23.87,5.77,23.87s1.49-14.5-10.67-22.56c4.6,4.1-2.9,22.56-2.9,22.56s6.6-27.21-4.86-22c-1.81.82-.13,13.57-.13,13.57s-2.3-14.6-5.76-13.83c-2,.45-12.8,20.23-12.8,20.23S88.59,108,85.9,108.88c-2,.65-5.63,9.47-5.63,9.47s1.79-8.71,0-9.22-11.78,9.22-11.78,9.22,7.43-8.71,6.15-10.5c-1.94-2.71-4.22-2.84-6.91-1.79-3.93,1.53-9.22,8.7-9.22,8.7s5.27-7.26,4.35-10c-1.48-4.37-16.64,8.45-16.64,8.45s9-8.45,6.91-10.24S40,101.75,36.49,101.74c-10.24,0-13.79-2.43-16.9-4.9"/></g></g></g></g></svg>